<svg width="258" height="293" viewBox="0 0 258 293" fill="none" xmlns="http://www.w3.org/2000/svg">
<g filter="url(#filter0_d_0_458)">
<g filter="url(#filter1_dd_0_458)">
<path fill-rule="evenodd" clip-rule="evenodd" d="M207 60.3203C207 55.902 203.418 52.3203 199 52.3203H58.9995C54.5812 52.3203 50.9995 55.902 50.9995 60.3203V149.025C50.9995 153.443 47.4178 157.025 42.9995 157.025H28.0498C20.8619 157.025 17.3207 165.768 22.4823 170.77L123.432 268.603C126.535 271.61 131.465 271.61 134.567 268.603L235.517 170.77C240.679 165.768 237.138 157.025 229.95 157.025H215C210.581 157.025 207 153.443 207 149.025V60.3203Z" fill="#1E8737"/>
</g>
</g>
<defs>
<filter id="filter0_d_0_458" x="16.0337" y="0" width="225.932" height="282" filterUnits="userSpaceOnUse" color-interpolation-filters="sRGB">
<feFlood flood-opacity="0" result="BackgroundImageFix"/>
<feColorMatrix in="SourceAlpha" type="matrix" values="0 0 0 0 0 0 0 0 0 0 0 0 0 0 0 0 0 0 127 0" result="hardAlpha"/>
<feOffset dy="4"/>
<feGaussianBlur stdDeviation="2"/>
<feComposite in2="hardAlpha" operator="out"/>
<feColorMatrix type="matrix" values="0 0 0 0 0 0 0 0 0 0 0 0 0 0 0 0 0 0 0.25 0"/>
<feBlend mode="normal" in2="BackgroundImageFix" result="effect1_dropShadow_0_458"/>
<feBlend mode="normal" in="SourceGraphic" in2="effect1_dropShadow_0_458" result="shape"/>
</filter>
<filter id="filter1_dd_0_458" x="0.0336914" y="34.3203" width="257.932" height="258.538" filterUnits="userSpaceOnUse" color-interpolation-filters="sRGB">
<feFlood flood-opacity="0" result="BackgroundImageFix"/>
<feColorMatrix in="SourceAlpha" type="matrix" values="0 0 0 0 0 0 0 0 0 0 0 0 0 0 0 0 0 0 127 0" result="hardAlpha"/>
<feOffset dy="2"/>
<feGaussianBlur stdDeviation="10"/>
<feColorMatrix type="matrix" values="0 0 0 0 0.203922 0 0 0 0 0.203922 0 0 0 0 0.243137 0 0 0 0.16 0"/>
<feBlend mode="multiply" in2="BackgroundImageFix" result="effect1_dropShadow_0_458"/>
<feColorMatrix in="SourceAlpha" type="matrix" values="0 0 0 0 0 0 0 0 0 0 0 0 0 0 0 0 0 0 127 0" result="hardAlpha"/>
<feOffset/>
<feGaussianBlur stdDeviation="1"/>
<feColorMatrix type="matrix" values="0 0 0 0 0.203922 0 0 0 0 0.203922 0 0 0 0 0.243137 0 0 0 0.4 0"/>
<feBlend mode="multiply" in2="effect1_dropShadow_0_458" result="effect2_dropShadow_0_458"/>
<feBlend mode="normal" in="SourceGraphic" in2="effect2_dropShadow_0_458" result="shape"/>
</filter>
</defs>
</svg>
