<svg width="964" height="916" viewBox="0 0 964 916" fill="none" xmlns="http://www.w3.org/2000/svg">
<rect x="82.4998" y="13.4758" width="799" height="15.0282" rx="7.5" fill="#AEAEB2" stroke="#85858B"/>
<rect x="86.4596" y="17.4261" width="791.079" height="7.12807" rx="3.5" fill="#85858B" stroke="#85858B"/>
<g filter="url(#filter0_dd_522_527)">
<mask id="path-3-inside-1_522_527" fill="white">
<path fill-rule="evenodd" clip-rule="evenodd" d="M862 22.9899C862 21.8853 861.104 20.9899 860 20.9899H104C102.895 20.9899 102 21.8853 102 22.9899L102 838.495C102 839.041 102.223 839.562 102.617 839.94L124.367 860.769C125.14 861.509 126.36 861.509 127.133 860.769L148.116 840.674C148.89 839.933 150.11 839.933 150.883 840.674L171.866 860.769C172.64 861.509 173.86 861.509 174.633 860.769L195.616 840.674C196.39 839.933 197.61 839.933 198.383 840.674L219.366 860.769C220.14 861.509 221.36 861.509 222.133 860.769L243.116 840.674C243.89 839.933 245.11 839.933 245.883 840.674L266.866 860.769C267.64 861.509 268.86 861.509 269.633 860.769L290.616 840.674C291.39 839.933 292.61 839.933 293.383 840.674L314.366 860.769C315.14 861.509 316.36 861.509 317.133 860.769L338.116 840.674C338.89 839.933 340.11 839.933 340.883 840.674L361.866 860.769C362.64 861.509 363.86 861.509 364.633 860.769L385.616 840.674C386.39 839.933 387.61 839.933 388.383 840.674L409.366 860.769C410.14 861.509 411.36 861.509 412.133 860.769L433.116 840.674C433.89 839.933 435.11 839.933 435.883 840.674L456.866 860.769C457.64 861.509 458.86 861.509 459.633 860.769L480.616 840.674C481.39 839.933 482.61 839.933 483.383 840.674L504.366 860.769C505.14 861.509 506.36 861.509 507.133 860.769L528.116 840.674C528.89 839.933 530.11 839.933 530.883 840.674L551.866 860.769C552.64 861.509 553.86 861.509 554.633 860.769L575.616 840.674C576.39 839.933 577.61 839.933 578.383 840.674L599.366 860.769C600.14 861.509 601.36 861.509 602.133 860.769L623.116 840.674C623.89 839.933 625.11 839.933 625.883 840.674L646.866 860.769C647.64 861.509 648.86 861.509 649.633 860.769L670.616 840.674C671.39 839.933 672.61 839.933 673.383 840.674L694.366 860.769C695.14 861.509 696.36 861.509 697.133 860.769L718.116 840.674C718.89 839.933 720.11 839.933 720.883 840.674L741.866 860.769C742.64 861.509 743.86 861.509 744.633 860.769L765.616 840.674C766.39 839.933 767.61 839.933 768.383 840.674L789.366 860.769C790.14 861.509 791.36 861.509 792.133 860.769L813.116 840.674C813.89 839.933 815.11 839.933 815.883 840.674L836.866 860.769C837.64 861.509 838.86 861.509 839.633 860.769L861.383 839.94C861.777 839.562 862 839.041 862 838.495L862 22.9899Z"/>
</mask>
<path fill-rule="evenodd" clip-rule="evenodd" d="M862 22.9899C862 21.8853 861.104 20.9899 860 20.9899H104C102.895 20.9899 102 21.8853 102 22.9899L102 838.495C102 839.041 102.223 839.562 102.617 839.94L124.367 860.769C125.14 861.509 126.36 861.509 127.133 860.769L148.116 840.674C148.89 839.933 150.11 839.933 150.883 840.674L171.866 860.769C172.64 861.509 173.86 861.509 174.633 860.769L195.616 840.674C196.39 839.933 197.61 839.933 198.383 840.674L219.366 860.769C220.14 861.509 221.36 861.509 222.133 860.769L243.116 840.674C243.89 839.933 245.11 839.933 245.883 840.674L266.866 860.769C267.64 861.509 268.86 861.509 269.633 860.769L290.616 840.674C291.39 839.933 292.61 839.933 293.383 840.674L314.366 860.769C315.14 861.509 316.36 861.509 317.133 860.769L338.116 840.674C338.89 839.933 340.11 839.933 340.883 840.674L361.866 860.769C362.64 861.509 363.86 861.509 364.633 860.769L385.616 840.674C386.39 839.933 387.61 839.933 388.383 840.674L409.366 860.769C410.14 861.509 411.36 861.509 412.133 860.769L433.116 840.674C433.89 839.933 435.11 839.933 435.883 840.674L456.866 860.769C457.64 861.509 458.86 861.509 459.633 860.769L480.616 840.674C481.39 839.933 482.61 839.933 483.383 840.674L504.366 860.769C505.14 861.509 506.36 861.509 507.133 860.769L528.116 840.674C528.89 839.933 530.11 839.933 530.883 840.674L551.866 860.769C552.64 861.509 553.86 861.509 554.633 860.769L575.616 840.674C576.39 839.933 577.61 839.933 578.383 840.674L599.366 860.769C600.14 861.509 601.36 861.509 602.133 860.769L623.116 840.674C623.89 839.933 625.11 839.933 625.883 840.674L646.866 860.769C647.64 861.509 648.86 861.509 649.633 860.769L670.616 840.674C671.39 839.933 672.61 839.933 673.383 840.674L694.366 860.769C695.14 861.509 696.36 861.509 697.133 860.769L718.116 840.674C718.89 839.933 720.11 839.933 720.883 840.674L741.866 860.769C742.64 861.509 743.86 861.509 744.633 860.769L765.616 840.674C766.39 839.933 767.61 839.933 768.383 840.674L789.366 860.769C790.14 861.509 791.36 861.509 792.133 860.769L813.116 840.674C813.89 839.933 815.11 839.933 815.883 840.674L836.866 860.769C837.64 861.509 838.86 861.509 839.633 860.769L861.383 839.94C861.777 839.562 862 839.041 862 838.495L862 22.9899Z" fill="url(#paint0_linear_522_527)"/>
<path d="M861.383 839.94L860.691 839.217L861.383 839.94ZM862 838.495H861H862ZM836.866 860.769L836.175 861.491L836.866 860.769ZM839.633 860.769L840.325 861.491L839.633 860.769ZM813.116 840.674L812.425 839.951L813.116 840.674ZM815.883 840.674L816.575 839.951L815.883 840.674ZM789.366 860.769L788.675 861.491L789.366 860.769ZM792.133 860.769L792.825 861.491L792.133 860.769ZM765.616 840.674L764.925 839.951L765.616 840.674ZM768.383 840.674L769.075 839.951L768.383 840.674ZM741.866 860.769L741.175 861.491L741.866 860.769ZM744.633 860.769L745.325 861.491L744.633 860.769ZM718.116 840.674L717.425 839.951L718.116 840.674ZM720.883 840.674L721.575 839.951L720.883 840.674ZM694.366 860.769L693.675 861.491L694.366 860.769ZM697.133 860.769L697.825 861.491L697.133 860.769ZM670.616 840.674L669.925 839.951L670.616 840.674ZM673.383 840.674L674.075 839.951L673.383 840.674ZM646.866 860.769L646.175 861.491L646.866 860.769ZM649.633 860.769L650.325 861.491L649.633 860.769ZM623.116 840.674L622.425 839.951L623.116 840.674ZM625.883 840.674L626.575 839.951L625.883 840.674ZM599.366 860.769L598.675 861.491L599.366 860.769ZM602.133 860.769L602.825 861.491L602.133 860.769ZM575.616 840.674L576.308 841.396L575.616 840.674ZM578.383 840.674L577.691 841.396L578.383 840.674ZM551.866 860.769L552.558 860.046L551.866 860.769ZM554.633 860.769L553.941 860.046L554.633 860.769ZM528.116 840.674L528.808 841.396L528.116 840.674ZM530.883 840.674L530.191 841.396L530.883 840.674ZM504.366 860.769L505.058 860.046L504.366 860.769ZM507.133 860.769L506.441 860.046L507.133 860.769ZM480.616 840.674L481.308 841.396L480.616 840.674ZM483.383 840.674L482.691 841.396L483.383 840.674ZM456.866 860.769L457.558 860.046L456.866 860.769ZM459.633 860.769L458.941 860.046L459.633 860.769ZM433.116 840.674L433.808 841.396L433.116 840.674ZM435.883 840.674L435.191 841.396L435.883 840.674ZM409.366 860.769L410.058 860.046L409.366 860.769ZM412.133 860.769L411.441 860.046L412.133 860.769ZM385.616 840.674L386.308 841.396L385.616 840.674ZM388.383 840.674L387.691 841.396L388.383 840.674ZM361.866 860.769L362.558 860.046L361.866 860.769ZM364.633 860.769L363.941 860.046L364.633 860.769ZM338.116 840.674L338.808 841.396L338.116 840.674ZM340.883 840.674L340.191 841.396L340.883 840.674ZM314.366 860.769L315.058 860.046L314.366 860.769ZM317.133 860.769L316.441 860.046L317.133 860.769ZM290.616 840.674L291.308 841.396L290.616 840.674ZM293.383 840.674L292.691 841.396L293.383 840.674ZM266.866 860.769L267.558 860.046L266.866 860.769ZM269.633 860.769L268.941 860.046L269.633 860.769ZM243.116 840.674L243.808 841.396L243.116 840.674ZM245.883 840.674L245.191 841.396L245.883 840.674ZM219.366 860.769L220.058 860.046L219.366 860.769ZM222.133 860.769L221.441 860.046L222.133 860.769ZM195.616 840.674L196.308 841.396L195.616 840.674ZM198.383 840.674L197.691 841.396L198.383 840.674ZM171.866 860.769L172.558 860.046L171.866 860.769ZM174.633 860.769L173.941 860.046L174.633 860.769ZM148.116 840.674L148.808 841.396L148.116 840.674ZM150.883 840.674L150.191 841.396L150.883 840.674ZM124.367 860.769L125.058 860.046L124.367 860.769ZM127.133 860.769L126.442 860.046L127.133 860.769ZM102.617 839.94L103.308 839.217L102.617 839.94ZM862 22.9899H861H862ZM104 21.9899H860V19.9899H104V21.9899ZM103 838.495L103 22.9899L101 22.9899L101 838.495H103ZM125.058 860.046L103.308 839.217L101.925 840.662L123.675 861.491L125.058 860.046ZM147.425 839.951L126.442 860.046L127.825 861.491L148.808 841.396L147.425 839.951ZM172.558 860.046L151.575 839.951L150.191 841.396L171.175 861.491L172.558 860.046ZM194.925 839.951L173.941 860.046L175.325 861.491L196.308 841.396L194.925 839.951ZM220.058 860.046L199.075 839.951L197.691 841.396L218.675 861.491L220.058 860.046ZM242.425 839.951L221.441 860.046L222.825 861.491L243.808 841.396L242.425 839.951ZM267.558 860.046L246.575 839.951L245.191 841.396L266.175 861.491L267.558 860.046ZM289.925 839.951L268.941 860.046L270.325 861.491L291.308 841.396L289.925 839.951ZM315.058 860.046L294.075 839.951L292.691 841.396L313.675 861.491L315.058 860.046ZM337.425 839.951L316.441 860.046L317.825 861.491L338.808 841.396L337.425 839.951ZM362.558 860.046L341.575 839.951L340.191 841.396L361.175 861.491L362.558 860.046ZM384.925 839.951L363.941 860.046L365.325 861.491L386.308 841.396L384.925 839.951ZM410.058 860.046L389.075 839.951L387.691 841.396L408.675 861.491L410.058 860.046ZM432.425 839.951L411.441 860.046L412.825 861.491L433.808 841.396L432.425 839.951ZM457.558 860.046L436.575 839.951L435.191 841.396L456.175 861.491L457.558 860.046ZM479.925 839.951L458.941 860.046L460.325 861.491L481.308 841.396L479.925 839.951ZM505.058 860.046L484.075 839.951L482.691 841.396L503.675 861.491L505.058 860.046ZM527.425 839.951L506.441 860.046L507.825 861.491L528.808 841.396L527.425 839.951ZM552.558 860.046L531.575 839.951L530.191 841.396L551.175 861.491L552.558 860.046ZM574.925 839.951L553.941 860.046L555.325 861.491L576.308 841.396L574.925 839.951ZM600.058 860.046L579.075 839.951L577.691 841.396L598.675 861.491L600.058 860.046ZM622.425 839.951L601.441 860.046L602.825 861.491L623.808 841.396L622.425 839.951ZM647.558 860.046L626.575 839.951L625.191 841.396L646.175 861.491L647.558 860.046ZM669.925 839.951L648.941 860.046L650.325 861.491L671.308 841.396L669.925 839.951ZM695.058 860.046L674.075 839.951L672.691 841.396L693.675 861.491L695.058 860.046ZM717.425 839.951L696.441 860.046L697.825 861.491L718.808 841.396L717.425 839.951ZM742.558 860.046L721.575 839.951L720.191 841.396L741.175 861.491L742.558 860.046ZM764.925 839.951L743.941 860.046L745.325 861.491L766.308 841.396L764.925 839.951ZM790.058 860.046L769.075 839.951L767.691 841.396L788.675 861.491L790.058 860.046ZM812.425 839.951L791.441 860.046L792.825 861.491L813.808 841.396L812.425 839.951ZM837.558 860.046L816.575 839.951L815.191 841.396L836.175 861.491L837.558 860.046ZM840.325 861.491L862.075 840.662L860.691 839.217L838.941 860.046L840.325 861.491ZM861 22.9899L861 838.495H863L863 22.9899L861 22.9899ZM862.075 840.662C862.666 840.096 863 839.313 863 838.495H861C861 838.768 860.888 839.029 860.691 839.217L862.075 840.662ZM836.175 861.491C837.335 862.602 839.164 862.602 840.325 861.491L838.941 860.046C838.555 860.417 837.945 860.417 837.558 860.046L836.175 861.491ZM813.808 841.396C814.195 841.026 814.805 841.026 815.191 841.396L816.575 839.951C815.414 838.84 813.585 838.84 812.425 839.951L813.808 841.396ZM788.675 861.491C789.835 862.602 791.664 862.602 792.825 861.491L791.441 860.046C791.055 860.417 790.445 860.417 790.058 860.046L788.675 861.491ZM766.308 841.396C766.695 841.026 767.305 841.026 767.691 841.396L769.075 839.951C767.914 838.84 766.085 838.84 764.925 839.951L766.308 841.396ZM741.175 861.491C742.335 862.602 744.164 862.602 745.325 861.491L743.941 860.046C743.555 860.417 742.945 860.417 742.558 860.046L741.175 861.491ZM718.808 841.396C719.195 841.026 719.805 841.026 720.191 841.396L721.575 839.951C720.414 838.84 718.585 838.84 717.425 839.951L718.808 841.396ZM693.675 861.491C694.835 862.602 696.664 862.602 697.825 861.491L696.441 860.046C696.055 860.417 695.445 860.417 695.058 860.046L693.675 861.491ZM671.308 841.396C671.695 841.026 672.305 841.026 672.691 841.396L674.075 839.951C672.914 838.84 671.085 838.84 669.925 839.951L671.308 841.396ZM646.175 861.491C647.335 862.602 649.164 862.602 650.325 861.491L648.941 860.046C648.555 860.417 647.945 860.417 647.558 860.046L646.175 861.491ZM623.808 841.396C624.195 841.026 624.805 841.026 625.191 841.396L626.575 839.951C625.414 838.84 623.585 838.84 622.425 839.951L623.808 841.396ZM598.675 861.491C599.835 862.602 601.665 862.602 602.825 861.491L601.441 860.046C601.055 860.417 600.445 860.417 600.058 860.046L598.675 861.491ZM576.308 841.396C576.695 841.026 577.305 841.026 577.691 841.396L579.075 839.951C577.915 838.84 576.085 838.84 574.925 839.951L576.308 841.396ZM551.175 861.491C552.335 862.602 554.165 862.602 555.325 861.491L553.941 860.046C553.555 860.417 552.945 860.417 552.558 860.046L551.175 861.491ZM528.808 841.396C529.195 841.026 529.805 841.026 530.191 841.396L531.575 839.951C530.415 838.84 528.585 838.84 527.425 839.951L528.808 841.396ZM503.675 861.491C504.835 862.602 506.665 862.602 507.825 861.491L506.441 860.046C506.055 860.417 505.445 860.417 505.058 860.046L503.675 861.491ZM481.308 841.396C481.695 841.026 482.305 841.026 482.691 841.396L484.075 839.951C482.915 838.84 481.085 838.84 479.925 839.951L481.308 841.396ZM456.175 861.491C457.335 862.602 459.165 862.602 460.325 861.491L458.941 860.046C458.555 860.417 457.945 860.417 457.558 860.046L456.175 861.491ZM433.808 841.396C434.195 841.026 434.805 841.026 435.191 841.396L436.575 839.951C435.415 838.84 433.585 838.84 432.425 839.951L433.808 841.396ZM408.675 861.491C409.835 862.602 411.665 862.602 412.825 861.491L411.441 860.046C411.055 860.417 410.445 860.417 410.058 860.046L408.675 861.491ZM386.308 841.396C386.695 841.026 387.305 841.026 387.691 841.396L389.075 839.951C387.915 838.84 386.085 838.84 384.925 839.951L386.308 841.396ZM361.175 861.491C362.335 862.602 364.165 862.602 365.325 861.491L363.941 860.046C363.555 860.417 362.945 860.417 362.558 860.046L361.175 861.491ZM338.808 841.396C339.195 841.026 339.805 841.026 340.191 841.396L341.575 839.951C340.415 838.84 338.585 838.84 337.425 839.951L338.808 841.396ZM313.675 861.491C314.835 862.602 316.665 862.602 317.825 861.491L316.441 860.046C316.055 860.417 315.445 860.417 315.058 860.046L313.675 861.491ZM291.308 841.396C291.695 841.026 292.305 841.026 292.691 841.396L294.075 839.951C292.915 838.84 291.085 838.84 289.925 839.951L291.308 841.396ZM266.175 861.491C267.335 862.602 269.165 862.602 270.325 861.491L268.941 860.046C268.555 860.417 267.945 860.417 267.558 860.046L266.175 861.491ZM243.808 841.396C244.195 841.026 244.805 841.026 245.191 841.396L246.575 839.951C245.415 838.84 243.585 838.84 242.425 839.951L243.808 841.396ZM218.675 861.491C219.835 862.602 221.665 862.602 222.825 861.491L221.441 860.046C221.055 860.417 220.445 860.417 220.058 860.046L218.675 861.491ZM196.308 841.396C196.695 841.026 197.305 841.026 197.691 841.396L199.075 839.951C197.915 838.84 196.085 838.84 194.925 839.951L196.308 841.396ZM171.175 861.491C172.335 862.602 174.165 862.602 175.325 861.491L173.941 860.046C173.555 860.417 172.945 860.417 172.558 860.046L171.175 861.491ZM148.808 841.396C149.195 841.026 149.805 841.026 150.191 841.396L151.575 839.951C150.415 838.84 148.585 838.84 147.425 839.951L148.808 841.396ZM123.675 861.491C124.835 862.602 126.665 862.602 127.825 861.491L126.442 860.046C126.055 860.417 125.445 860.417 125.058 860.046L123.675 861.491ZM101 838.495C101 839.313 101.334 840.096 101.925 840.662L103.308 839.217C103.111 839.029 103 838.768 103 838.495H101ZM860 21.9899C860.552 21.9899 861 22.4376 861 22.9899L863 22.9899C863 21.333 861.656 19.9899 860 19.9899V21.9899ZM104 19.9899C102.343 19.9899 101 21.333 101 22.9899L103 22.9899C103 22.4376 103.448 21.9899 104 21.9899V19.9899Z" fill="#EBEBEC" mask="url(#path-3-inside-1_522_527)"/>
</g>
<rect x="102" y="20.9899" width="760" height="7.88233" fill="url(#paint1_linear_522_527)"/>
<rect x="94.4844" y="17.9846" width="779.474" height="3.00528" fill="#85858B"/>
<g filter="url(#filter1_f_522_527)">
<path d="M862 28.9809H948V900H921.693L862 28.9809Z" fill="white"/>
</g>
<g filter="url(#filter2_f_522_527)">
<path d="M102 28.9809H16V900H42.3072L102 28.9809Z" fill="white"/>
</g>
<defs>
<filter id="filter0_dd_522_527" x="72" y="0.989868" width="820" height="900.334" filterUnits="userSpaceOnUse" color-interpolation-filters="sRGB">
<feFlood flood-opacity="0" result="BackgroundImageFix"/>
<feColorMatrix in="SourceAlpha" type="matrix" values="0 0 0 0 0 0 0 0 0 0 0 0 0 0 0 0 0 0 127 0" result="hardAlpha"/>
<feOffset dy="10"/>
<feGaussianBlur stdDeviation="15"/>
<feColorMatrix type="matrix" values="0 0 0 0 0.203922 0 0 0 0 0.203922 0 0 0 0 0.243137 0 0 0 0.15 0"/>
<feBlend mode="normal" in2="BackgroundImageFix" result="effect1_dropShadow_522_527"/>
<feColorMatrix in="SourceAlpha" type="matrix" values="0 0 0 0 0 0 0 0 0 0 0 0 0 0 0 0 0 0 127 0" result="hardAlpha"/>
<feOffset dy="4"/>
<feGaussianBlur stdDeviation="5"/>
<feColorMatrix type="matrix" values="0 0 0 0 0.203922 0 0 0 0 0.203922 0 0 0 0 0.243137 0 0 0 0.3 0"/>
<feBlend mode="normal" in2="effect1_dropShadow_522_527" result="effect2_dropShadow_522_527"/>
<feBlend mode="normal" in="SourceGraphic" in2="effect2_dropShadow_522_527" result="shape"/>
</filter>
<filter id="filter1_f_522_527" x="846" y="12.9809" width="118" height="903.019" filterUnits="userSpaceOnUse" color-interpolation-filters="sRGB">
<feFlood flood-opacity="0" result="BackgroundImageFix"/>
<feBlend mode="normal" in="SourceGraphic" in2="BackgroundImageFix" result="shape"/>
<feGaussianBlur stdDeviation="8" result="effect1_foregroundBlur_522_527"/>
</filter>
<filter id="filter2_f_522_527" x="0" y="12.9809" width="118" height="903.019" filterUnits="userSpaceOnUse" color-interpolation-filters="sRGB">
<feFlood flood-opacity="0" result="BackgroundImageFix"/>
<feBlend mode="normal" in="SourceGraphic" in2="BackgroundImageFix" result="shape"/>
<feGaussianBlur stdDeviation="8" result="effect1_foregroundBlur_522_527"/>
</filter>
<linearGradient id="paint0_linear_522_527" x1="592.623" y1="20.9899" x2="592.623" y2="928.145" gradientUnits="userSpaceOnUse">
<stop stop-color="#E8E8E8"/>
<stop offset="0.0760776" stop-color="white"/>
<stop offset="0.497673" stop-color="white"/>
<stop offset="0.862458" stop-color="#E8E8E8"/>
</linearGradient>
<linearGradient id="paint1_linear_522_527" x1="482" y1="20.9899" x2="482" y2="26.7855" gradientUnits="userSpaceOnUse">
<stop offset="0.197917" stop-color="#D6D6D8"/>
<stop offset="0.71875" stop-color="#C2C2C5" stop-opacity="0"/>
</linearGradient>
</defs>
</svg>
