<svg width="16" height="40" viewBox="0 0 16 40" fill="none" xmlns="http://www.w3.org/2000/svg">
<path fill-rule="evenodd" clip-rule="evenodd" d="M12.5763 22.442L13.2513 39.3088C13.2513 39.3088 10.2522 40.3066 10.0494 37.743C9.86919 35.4671 8.4864 25.916 8.4864 25.916L7.41934 25.8516C7.41934 25.8516 6.40709 34.6412 5.97807 37.5286C5.55417 40.3805 2.59381 39.2001 2.59381 39.2001L3.57755 22.3583C3.57755 22.3583 0.0138601 19.4871 0.556161 16.9821C1.03305 14.7805 1.68681 10.9528 1.68681 10.9528C2.5781 10.031 4.09172 9.42629 5.79901 9.14645L8.11512 12.5746L10.425 9.16879C12.0486 9.45129 13.5155 10.0326 14.4652 10.9262C14.4652 10.9262 15.0119 14.8604 15.4588 17.051C15.905 19.2413 12.5763 22.442 12.5763 22.442ZM4.97862 3.74228C4.97862 -1.03934 11.6335 -0.191847 11.1186 4.06416C10.6227 8.15922 4.97862 8.58524 4.97862 3.74228Z" fill="#34343E"/>
</svg>
